# xmcd
#
# Track frame offsets:
#	150
#	20296
#	41872
#	59907
#	75582
#	87231
#	105595
#	127125
#	142704
#	159651
#	183193
#	202742
#
# Disc length: 2904 seconds
# Revision: 0
# Processed by: cddbd v1.5.2PL0 Copyright (c) Steve Scherf et al.
# Submitted via: dBpowerAMP V12.0
#
DISCID=9a0b560c
DTITLE=Red Tail Ring - The Heart's Swift Foot
DYEAR=2013
DGENRE=Folk
TTITLE0=Ohio Turnpike
TTITLE1=Katy Came Breezing
TTITLE2=Dirt Triangle
TTITLE3=The Heart's Swift Foot
TTITLE4=J in the Broom Straw
TTITLE5=Queen of the West and Other Stories
TTITLE6=A Clearing in the Wild
TTITLE7=Suffer Every Sound
TTITLE8=Body Like a Bell
TTITLE9=St. James Hospital
TTITLE10=Ladie's Choice Waltz
TTITLE11=My Heart's Own Love
EXTD=
EXTT0=
EXTT1=
EXTT2=
EXTT3=
EXTT4=
EXTT5=
EXTT6=
EXTT7=
EXTT8=
EXTT9=
EXTT10=
EXTT11=
PLAYORDER=
